<?xml version="1.0" encoding="utf-8"?>
<svg xmlns="http://www.w3.org/2000/svg" width="1338" height="195" viewBox="0 0 1338 195" fill="none">
<path d="M25 97.8528L92.8823 29.9706C102.255 20.598 117.451 20.598 126.823 29.9706V29.9706C136.196 39.3431 136.196 54.5391 126.823 63.9117L75.5581 115.177" stroke="black" stroke-width="12" stroke-linecap="round"/>
<path d="M76.2653 114.47L126.823 63.9117C136.196 54.5391 151.392 54.5391 160.765 63.9117L161.118 64.2652C170.491 73.6378 170.491 88.8338 161.118 98.2063L99.7248 159.6C96.6006 162.724 96.6006 167.789 99.7248 170.913L112.331 183.52" stroke="black" stroke-width="12" stroke-linecap="round"/>
<path d="M109.853 46.9411L59.6482 97.1457C50.2757 106.518 50.2757 121.714 59.6482 131.087V131.087C69.0208 140.459 84.2168 140.459 93.5894 131.087L143.794 80.8822" stroke="black" stroke-width="12" stroke-linecap="round"/>
<path d="M223.886 63.1818H239.364L260.091 113.773H260.909L281.636 63.1818H297.114V133H284.977V85.0341H284.33L265.034 132.795H255.966L236.67 84.9318H236.023V133H223.886V63.1818ZM333.182 134.023C328.068 134.023 323.636 132.898 319.886 130.648C316.136 128.398 313.227 125.25 311.159 121.205C309.114 117.159 308.091 112.432 308.091 107.023C308.091 101.614 309.114 96.875 311.159 92.8068C313.227 88.7386 316.136 85.5795 319.886 83.3295C323.636 81.0795 328.068 79.9545 333.182 79.9545C338.295 79.9545 342.727 81.0795 346.477 83.3295C350.227 85.5795 353.125 88.7386 355.17 92.8068C357.239 96.875 358.273 101.614 358.273 107.023C358.273 112.432 357.239 117.159 355.17 121.205C353.125 125.25 350.227 128.398 346.477 130.648C342.727 132.898 338.295 134.023 333.182 134.023ZM333.25 124.136C336.023 124.136 338.341 123.375 340.205 121.852C342.068 120.307 343.455 118.239 344.364 115.648C345.295 113.057 345.761 110.17 345.761 106.989C345.761 103.784 345.295 100.886 344.364 98.2955C343.455 95.6818 342.068 93.6023 340.205 92.0568C338.341 90.5114 336.023 89.7386 333.25 89.7386C330.409 89.7386 328.045 90.5114 326.159 92.0568C324.295 93.6023 322.898 95.6818 321.966 98.2955C321.057 100.886 320.602 103.784 320.602 106.989C320.602 110.17 321.057 113.057 321.966 115.648C322.898 118.239 324.295 120.307 326.159 121.852C328.045 123.375 330.409 124.136 333.25 124.136ZM388.179 133.92C384.065 133.92 380.384 132.864 377.134 130.75C373.884 128.636 371.315 125.568 369.429 121.545C367.543 117.523 366.599 112.636 366.599 106.886C366.599 101.068 367.554 96.1591 369.463 92.1591C371.395 88.1364 373.997 85.1023 377.27 83.0568C380.543 80.9886 384.19 79.9545 388.213 79.9545C391.281 79.9545 393.804 80.4773 395.781 81.5227C397.759 82.5455 399.327 83.7841 400.486 85.2386C401.645 86.6705 402.543 88.0227 403.179 89.2955H403.69V63.1818H416.065V133H403.929V124.75H403.179C402.543 126.023 401.622 127.375 400.418 128.807C399.213 130.216 397.622 131.42 395.645 132.42C393.668 133.42 391.179 133.92 388.179 133.92ZM391.622 123.795C394.236 123.795 396.463 123.091 398.304 121.682C400.145 120.25 401.543 118.261 402.497 115.716C403.452 113.17 403.929 110.205 403.929 106.818C403.929 103.432 403.452 100.489 402.497 97.9886C401.565 95.4886 400.179 93.5455 398.338 92.1591C396.52 90.7727 394.281 90.0795 391.622 90.0795C388.872 90.0795 386.577 90.7955 384.736 92.2273C382.895 93.6591 381.509 95.6364 380.577 98.1591C379.645 100.682 379.179 103.568 379.179 106.818C379.179 110.091 379.645 113.011 380.577 115.58C381.531 118.125 382.929 120.136 384.77 121.614C386.634 123.068 388.918 123.795 391.622 123.795ZM452.398 134.023C447.148 134.023 442.614 132.932 438.795 130.75C435 128.545 432.08 125.432 430.034 121.409C427.989 117.364 426.966 112.602 426.966 107.125C426.966 101.739 427.989 97.0114 430.034 92.9432C432.102 88.8523 434.989 85.6705 438.693 83.3977C442.398 81.1023 446.75 79.9545 451.75 79.9545C454.977 79.9545 458.023 80.4773 460.886 81.5227C463.773 82.5455 466.318 84.1364 468.523 86.2955C470.75 88.4545 472.5 91.2045 473.773 94.5455C475.045 97.8636 475.682 101.818 475.682 106.409V110.193H432.761V101.875H463.852C463.83 99.5114 463.318 97.4091 462.318 95.5682C461.318 93.7045 459.92 92.2386 458.125 91.1705C456.352 90.1023 454.284 89.5682 451.92 89.5682C449.398 89.5682 447.182 90.1818 445.273 91.4091C443.364 92.6136 441.875 94.2045 440.807 96.1818C439.761 98.1364 439.227 100.284 439.205 102.625V109.886C439.205 112.932 439.761 115.545 440.875 117.727C441.989 119.886 443.545 121.545 445.545 122.705C447.545 123.841 449.886 124.409 452.568 124.409C454.364 124.409 455.989 124.159 457.443 123.659C458.898 123.136 460.159 122.375 461.227 121.375C462.295 120.375 463.102 119.136 463.648 117.659L475.17 118.955C474.443 122 473.057 124.659 471.011 126.932C468.989 129.182 466.398 130.932 463.239 132.182C460.08 133.409 456.466 134.023 452.398 134.023ZM498.463 63.1818V133H486.122V63.1818H498.463Z" fill="black"/>
</svg>
