<svg xmlns="http://www.w3.org/2000/svg" viewBox="0 0 332 56"><g id="Symbol"><polygon points="32 16 32 8 32 0 24 0 16 0 16 8 8 8 8 16 0 16 0 24 0 32 8 32 16 32 16 24 16 16 24 16 32 16"/><circle cx="28" cy="44" r="4"/><circle cx="36" cy="44" r="4"/><circle cx="44" cy="44" r="3.5"/><circle cx="28" cy="52" r="3.5"/><circle cx="36" cy="52" r="3"/><circle cx="44" cy="28" r="4"/><circle cx="52" cy="28" r="3.5"/><circle cx="44" cy="36" r="4"/><circle cx="52" cy="36" r="3"/></g><g id="Wordmark"><path d="M272.5,12l-5,24h-6l-5-24h-7s4.42,17,6,23c1.32,5,4.05,7.53,9,7.53s7.5-1.5,9-7.5,6-23,6-23Z"/><circle cx="112" cy="5.5" r="4.25"/><path d="M89,18h8V12H89V0H83V12H76v6h7v9c0,9,4.5,15,14.5,15H100V36H89Z"/><path d="M118,26.5c0-9.25-6-14.5-15-14.5v6h9V36h-6v6h18V36h-6Z"/><path d="M288,18h9V12c-8.5,0-15,5.49-15,14V36h-4v6h21V36H288Z"/><path d="M325,12l-4.5,24H313l-4.5-24h-7L307,34c1,4,3,8.5,8,8.5h3V49H307v6h2a15.67,15.67,0,0,0,15-11c1.42-5.66,8-32,8-32Z"/><path d="M233.5,11.5c-8.56,0-15.5,6.44-15.5,15A15.48,15.48,0,0,0,233,42v0h13V36H225V30h24V26.5C249,17.94,242.06,11.5,233.5,11.5ZM242,24H225V18h17Z"/><path d="M169,18h10V12H169V0h-6V12h-7v6h7v9.5c0,9,4.5,14.5,14.5,14.5H182V36H169Z"/><path d="M199,11.5A15.16,15.16,0,0,0,183.5,27a15.5,15.5,0,0,0,31,0A15.16,15.16,0,0,0,199,11.5ZM208,36H190V18h18Z"/><path d="M139.5,11.5c-8.56,0-15.5,6.44-15.5,15A15.48,15.48,0,0,0,139,42v0h13V36H131V30h24V26.5C155,17.94,148.06,11.5,139.5,11.5ZM148,24H131V18h17Z"/></g></svg>